<?xml version="1.0" encoding="utf-8"?>
<!-- Generator: Adobe Illustrator 25.2.1, SVG Export Plug-In . SVG Version: 6.00 Build 0)  -->
<svg version="1.1" id="Capa_1" xmlns="http://www.w3.org/2000/svg" xmlns:xlink="http://www.w3.org/1999/xlink" x="0px" y="0px"
	 viewBox="0 0 1017 768" style="enable-background:new 0 0 1017 768;" xml:space="preserve">
<style type="text/css">
	.st0{fill:#FAA820;}
	.st1{fill:#F8367C;}
	
		.st2{fill:none;stroke:#F8367C;stroke-width:23;stroke-linecap:round;stroke-linejoin:round;stroke-miterlimit:10;stroke-dasharray:5;}
	.st3{fill:none;stroke:#F8367C;stroke-width:37.4051;stroke-linecap:round;stroke-linejoin:round;}
	.st4{fill:none;stroke:#F8367C;stroke-width:37.4051;stroke-linecap:round;stroke-linejoin:round;stroke-dasharray:8.0796,8.0796;}
	.st5{fill:none;}
</style>
<g>
	<path class="st5" d="M339.47,402.62c0.28-0.23,0.54-0.48,0.83-0.7l14.04-10.65c0.01-0.01,0.02-0.01,0.03-0.02l12.3-9.33
		c0.29-0.22,0.6-0.39,0.89-0.6c0.28-0.23,0.54-0.48,0.83-0.7l12.31-9.34c0,0,0.01,0,0.01-0.01l14.05-10.65
		c0.29-0.22,0.6-0.39,0.89-0.6c0.28-0.23,0.53-0.48,0.83-0.7l12.32-9.34c0,0,0,0,0,0l14.05-10.65c0.29-0.22,0.6-0.4,0.9-0.61
		c0.28-0.23,0.53-0.48,0.82-0.7l12.31-9.34c0,0,0,0,0.01-0.01l9.28-7.04l-2.5-1.89c-2.41-1.82-4.56-3.85-6.44-6.05
		c-2.64-1.2-5.18-2.7-7.6-4.51c-4.55-3.42-9.23-6.92-14.01-10.48c-2.41-1.79-4.56-3.8-6.45-5.98c-2.63-1.17-5.17-2.64-7.58-4.42
		c-4.6-3.39-9.29-6.83-14.04-10.29c-2.42-1.76-4.58-3.73-6.48-5.88c-2.63-1.13-5.17-2.57-7.6-4.31c-4.65-3.34-9.36-6.69-14.11-10.04
		c-2.43-1.71-4.61-3.64-6.54-5.75c-2.64-1.09-5.2-2.47-7.64-4.17c-4.7-3.26-9.45-6.51-14.22-9.74c-2.44-1.66-4.65-3.53-6.61-5.58
		c-2.64-1.03-5.21-2.35-7.67-3.98c-4.77-3.16-9.56-6.29-14.37-9.38c-2.47-1.59-4.7-3.39-6.7-5.38c-2.65-0.96-5.23-2.2-7.72-3.75
		c-4.83-3.01-9.66-5.97-14.49-8.88c-2.49-1.5-4.76-3.22-6.8-5.12c-2.65-0.86-5.25-2.01-7.76-3.46c-4.89-2.82-9.76-5.56-14.62-8.22
		c-2.51-1.38-4.82-2.98-6.92-4.77c-2.64-0.73-5.25-1.75-7.78-3.06c-5-2.58-9.95-5.05-14.72-7.34c-2.51-1.21-4.85-2.64-6.99-4.26
		c-2.61-0.56-5.21-1.39-7.76-2.5c-5.01-2.19-9.95-4.23-14.68-6.05c-2.48-0.96-4.82-2.14-6.99-3.5c-2.51-0.32-5.04-0.87-7.53-1.68
		c-4.91-1.59-9.69-2.97-14.18-4.08c-2.32-0.57-4.54-1.34-6.65-2.27c-2.23,0.06-4.52-0.09-6.82-0.44c-4.36-0.65-8.45-1-12.17-1.06
		c-1.77-0.03-3.51-0.17-5.22-0.41c-1.5,0.45-3.05,0.82-4.63,1.11c-2.55,0.45-4.78,1.13-6.63,2c-0.79,0.37-1.58,0.71-2.38,1.03
		c-0.57,0.6-1.17,1.19-1.79,1.76c-1.35,1.25-2.62,2.88-3.78,4.82c-0.75,1.25-1.56,2.46-2.42,3.6c-0.33,1.56-0.76,3.11-1.28,4.65
		c-1.13,3.33-2.09,7.13-2.85,11.28c-0.4,2.21-0.98,4.35-1.71,6.4c0.21,2.23,0.23,4.5,0.06,6.81l-0.07,0.91
		c-0.33,4.73-0.53,9.51-0.59,14.22c-0.03,2.6-0.31,5.14-0.81,7.59c0.58,2.44,0.95,4.97,1.07,7.57c0.24,5.02,0.64,10.12,1.18,15.14
		c0.28,2.59,0.31,5.15,0.11,7.66c0.88,2.36,1.55,4.84,1.98,7.42c0.84,4.97,1.84,10.01,2.97,14.98c0.59,2.56,0.91,5.12,1,7.65
		c1.15,2.26,2.11,4.67,2.84,7.2c1.41,4.89,2.99,9.83,4.68,14.68c0.87,2.51,1.49,5.05,1.86,7.58c1.41,2.15,2.63,4.45,3.64,6.92
		c1.94,4.75,4.05,9.55,6.26,14.26c1.14,2.43,2.02,4.91,2.65,7.42c1.63,2.02,3.09,4.22,4.35,6.59c2.43,4.59,5.02,9.21,7.7,13.75
		c1.38,2.33,2.49,4.75,3.36,7.22c1.83,1.87,3.5,3.95,4.99,6.23c2.86,4.39,5.88,8.81,8.97,13.15c1.59,2.22,2.92,4.56,4,6.96
		c2,1.73,3.86,3.68,5.54,5.84c3.24,4.17,6.63,8.37,10.09,12.47c1.78,2.11,3.3,4.35,4.58,6.69c2.14,1.58,4.16,3.39,6.02,5.43
		c3.58,3.94,7.31,7.9,11.08,11.76c1.94,1.98,3.63,4.11,5.07,6.35c2.25,1.41,4.39,3.07,6.39,4.97c3.89,3.69,7.88,7.34,11.87,10.85
		c2.08,1.83,3.92,3.82,5.53,5.94c2.35,1.24,4.61,2.73,6.75,4.47c4.16,3.39,8.42,6.73,12.66,9.93c1.57,1.19,3.03,2.46,4.38,3.82
		l3.81-2.89c0.3-0.23,0.62-0.4,0.92-0.62c0.28-0.22,0.52-0.47,0.81-0.68l12.29-9.33c0.01-0.01,0.02-0.01,0.02-0.02l14.05-10.65
		c0.29-0.22,0.59-0.39,0.88-0.6c0.29-0.23,0.54-0.49,0.84-0.71l14.04-10.65c0,0,0.01-0.01,0.01-0.01l12.31-9.34
		c0.29-0.22,0.6-0.39,0.89-0.6c0.28-0.23,0.54-0.48,0.83-0.7l14.04-10.65c0,0,0.01-0.01,0.01-0.01l12.31-9.34
		C338.86,403,339.17,402.83,339.47,402.62z"/>
	<path class="st5" d="M840.84,399.82c3.46-4.1,6.85-8.3,10.09-12.47c1.68-2.17,3.54-4.11,5.54-5.84c1.08-2.41,2.41-4.74,4-6.97
		c3.11-4.35,6.12-8.77,8.97-13.14c1.48-2.28,3.16-4.36,4.99-6.24c0.86-2.47,1.98-4.89,3.36-7.22c2.67-4.52,5.26-9.15,7.7-13.75
		c1.26-2.37,2.71-4.57,4.34-6.58c0.63-2.5,1.5-4.99,2.64-7.41c2.23-4.75,4.34-9.56,6.28-14.3c1.01-2.46,2.22-4.76,3.63-6.9
		c0.37-2.54,0.98-5.08,1.86-7.59c1.69-4.84,3.27-9.77,4.68-14.67c0.73-2.53,1.69-4.93,2.84-7.2c0.09-2.54,0.42-5.1,1.01-7.67
		c1.13-4.94,2.13-9.97,2.97-14.95c0.43-2.58,1.1-5.06,1.98-7.42c-0.2-2.51-0.17-5.07,0.11-7.67c0.54-5.02,0.94-10.1,1.18-15.12
		c0.12-2.6,0.49-5.13,1.07-7.57c-0.5-2.46-0.78-5-0.81-7.59c-0.06-4.71-0.26-9.49-0.59-14.22l-0.07-0.91
		c-0.17-2.31-0.15-4.59,0.06-6.82c-0.74-2.06-1.31-4.2-1.72-6.43c-0.75-4.13-1.71-7.92-2.84-11.24c-0.53-1.55-0.95-3.1-1.28-4.66
		c-0.87-1.15-1.68-2.36-2.43-3.62c-1.15-1.94-2.42-3.55-3.77-4.8c-0.62-0.58-1.22-1.17-1.79-1.77c-0.79-0.31-1.58-0.65-2.37-1.02
		c-1.86-0.87-4.09-1.55-6.64-2c-1.58-0.28-3.13-0.65-4.63-1.11c-1.71,0.24-3.45,0.38-5.22,0.41c-3.72,0.05-7.81,0.41-12.17,1.06
		c-2.3,0.34-4.56,0.5-6.82,0.44c-2.11,0.93-4.33,1.7-6.66,2.27c-4.5,1.12-9.28,2.49-14.18,4.08c-2.5,0.81-5.03,1.37-7.54,1.68
		c-2.17,1.36-4.5,2.54-6.98,3.49c-4.74,1.83-9.69,3.87-14.69,6.06c-2.54,1.11-5.13,1.94-7.74,2.5c-2.14,1.62-4.48,3.06-7,4.27
		c-4.75,2.28-9.7,4.74-14.71,7.33c-2.54,1.31-5.15,2.33-7.79,3.06c-2.09,1.79-4.4,3.39-6.9,4.76c-4.85,2.66-9.73,5.41-14.63,8.23
		c-2.51,1.45-5.11,2.6-7.76,3.45c-2.04,1.9-4.31,3.62-6.8,5.12c-4.83,2.9-9.66,5.86-14.49,8.87c-2.49,1.55-5.08,2.8-7.73,3.76
		c-2,1.99-4.24,3.8-6.71,5.39c-4.81,3.09-9.59,6.21-14.36,9.37c-2.45,1.62-5.02,2.95-7.66,3.97c-1.97,2.06-4.18,3.95-6.64,5.61
		c-4.77,3.23-9.5,6.47-14.2,9.73c-2.44,1.69-5,3.08-7.64,4.17c-1.93,2.1-4.11,4.03-6.53,5.74c-4.75,3.36-9.46,6.71-14.12,10.05
		c-2.42,1.74-4.97,3.17-7.6,4.31c-1.91,2.14-4.07,4.12-6.48,5.88c-4.76,3.46-9.44,6.9-14.04,10.29c-2.41,1.78-4.95,3.25-7.58,4.42
		c-1.89,2.18-4.04,4.19-6.45,5.98c-4.78,3.56-9.46,7.06-14.01,10.48c-2.41,1.81-4.96,3.31-7.6,4.51c-1.88,2.2-4.03,4.23-6.44,6.05
		l-2.5,1.89l9.28,7.04c0.01,0.01,0.02,0.02,0.03,0.02l12.3,9.33c0.28,0.22,0.53,0.46,0.81,0.69c0.3,0.21,0.61,0.39,0.91,0.61
		l14.05,10.65c0,0,0.01,0.01,0.01,0.01l12.32,9.34c0.29,0.22,0.54,0.47,0.82,0.69c0.29,0.21,0.6,0.38,0.89,0.6l12.31,9.34
		c0.01,0.01,0.01,0.01,0.02,0.01l14.04,10.65c0.29,0.22,0.54,0.47,0.82,0.69c0.29,0.21,0.6,0.38,0.89,0.6l14.05,10.65
		c0,0,0,0,0.01,0.01l12.32,9.34c0.29,0.22,0.54,0.47,0.82,0.69c0.3,0.21,0.61,0.39,0.91,0.61l12.33,9.35l0,0l14.04,10.65
		c0.29,0.22,0.54,0.47,0.82,0.7c0.3,0.21,0.61,0.39,0.9,0.61l12.31,9.33c0.01,0.01,0.02,0.01,0.02,0.02l14.04,10.65
		c0.3,0.22,0.55,0.48,0.84,0.71c0.29,0.21,0.59,0.38,0.88,0.6l14.04,10.65c0.01,0.01,0.01,0.01,0.02,0.02l12.3,9.33
		c0.29,0.22,0.54,0.47,0.82,0.69c0.3,0.21,0.61,0.39,0.91,0.62l3.81,2.89c1.35-1.36,2.81-2.63,4.38-3.82
		c4.23-3.19,8.49-6.53,12.65-9.92c2.14-1.75,4.4-3.24,6.75-4.48c1.61-2.12,3.45-4.11,5.53-5.93c4.02-3.54,8.01-7.19,11.86-10.85
		c2-1.9,4.15-3.56,6.39-4.97c1.45-2.24,3.14-4.37,5.07-6.35c3.77-3.86,7.5-7.82,11.08-11.76c1.86-2.05,3.88-3.86,6.03-5.44
		C837.54,404.18,839.06,401.94,840.84,399.82z"/>
	<path class="st5" d="M462.88,412.03c-1.78,1.2-3.54,2.44-5.29,3.69c-13.61,9.67-26.79,19.78-40.28,29.56
		c-0.27,0.2-0.56,0.36-0.83,0.56c-0.28,0.22-0.53,0.47-0.82,0.69l-1.85,1.4c-2.43,3.68-5.48,7.03-9.18,9.86l-14.01,10.69
		c-2.41,1.84-4.96,3.36-7.59,4.58c-1.87,2.22-4.02,4.27-6.42,6.11l-14.01,10.69c-2.41,1.84-4.95,3.36-7.59,4.58
		c-1.87,2.22-4.02,4.28-6.43,6.11l-14.02,10.69c-1.93,1.47-3.98,2.69-6.06,3.77c0.7,0.26,1.41,0.46,2.11,0.76
		c55.5,24.46,117.48,36.68,177.58,36.71V395.32c-0.14-0.01-0.29-0.03-0.43-0.04C492.28,394.05,475.25,403.73,462.88,412.03z"/>
	<path class="st5" d="M514.17,552.5c53.68-0.71,107.43-10.72,157.39-30.5c4.96-1.96,9.95-4.05,14.85-6.21
		c0.69-0.31,1.4-0.5,2.1-0.76c-2.09-1.08-4.14-2.3-6.07-3.78l-14.01-10.69c-2.41-1.83-4.55-3.89-6.42-6.11
		c-2.64-1.22-5.18-2.75-7.59-4.58l-14.02-10.69c-2.41-1.84-4.55-3.89-6.43-6.11c-2.64-1.22-5.18-2.75-7.59-4.58
		c-36.02-27.46-69.99-69.11-118.21-73.17V552.5C510.18,552.5,512.18,552.53,514.17,552.5z"/>
	<path class="st1" d="M330.59,515.79c-0.69-0.31-1.41-0.5-2.11-0.76c2.09-1.08,4.13-2.3,6.06-3.77l14.02-10.69
		c2.41-1.84,4.55-3.89,6.43-6.11c2.64-1.22,5.18-2.75,7.59-4.58l14.01-10.69c2.41-1.83,4.55-3.89,6.42-6.11
		c2.64-1.22,5.19-2.75,7.59-4.58l14.01-10.69c3.7-2.83,6.75-6.18,9.18-9.86l1.85-1.4c0.29-0.22,0.54-0.47,0.82-0.69
		c0.27-0.2,0.56-0.36,0.83-0.56c13.49-9.78,26.67-19.9,40.28-29.56c1.75-1.24,3.5-2.49,5.29-3.69c12.37-8.3,29.4-17.98,44.87-16.76
		c0.14,0.01,0.29,0.03,0.43,0.04V266.96c-0.52-0.45-1.03-0.92-1.59-1.34l-14.1-10.64c-2.43-1.84-5-3.36-7.67-4.57
		c-1.9-2.22-4.07-4.28-6.51-6.11c-4.63-3.48-9.39-7.04-14.26-10.67c-2.45-1.83-5.05-3.34-7.73-4.53c-1.93-2.23-4.14-4.28-6.61-6.1
		c-4.73-3.49-9.54-7.02-14.43-10.58c-2.49-1.81-5.11-3.3-7.82-4.47c-1.96-2.21-4.2-4.24-6.71-6.04c-4.83-3.46-9.71-6.94-14.65-10.42
		c-2.53-1.78-5.18-3.23-7.93-4.37c-2.01-2.19-4.28-4.19-6.83-5.95c-4.93-3.42-9.9-6.82-14.9-10.21c-2.57-1.74-5.27-3.15-8.05-4.23
		c-2.06-2.16-4.39-4.12-6.98-5.83c-5.06-3.34-10.13-6.66-15.23-9.94c-2.63-1.69-5.39-3.04-8.21-4.06c-2.13-2.12-4.53-4.04-7.19-5.69
		c-5.2-3.24-10.41-6.43-15.61-9.56c-2.71-1.63-5.53-2.9-8.41-3.84c-2.22-2.07-4.7-3.92-7.44-5.5c-5.4-3.11-10.78-6.14-16.15-9.08
		c-2.8-1.54-5.7-2.7-8.66-3.53c-2.34-2-4.94-3.76-7.79-5.24c-5.71-2.95-11.39-5.78-16.87-8.41c-2.95-1.42-5.99-2.44-9.05-3.1
		c-2.51-1.9-5.27-3.53-8.28-4.85c-6.09-2.66-12.13-5.15-17.94-7.4c-3.17-1.22-6.4-2.02-9.62-2.42c-2.78-1.75-5.82-3.18-9.08-4.24
		c-6.73-2.18-13.36-4.09-19.71-5.66c-3.56-0.88-7.13-1.27-10.63-1.19c-3.26-1.44-6.76-2.47-10.46-3.02
		c-7.9-1.17-15.61-1.82-22.91-1.93c-4.28-0.06-8.43,0.54-12.33,1.72c-4.18-0.6-8.52-0.56-12.91,0.22c-9.55,1.7-18.61,4.54-26.9,8.44
		c-4.71,2.21-8.79,5.21-12.17,8.77c-4.59,1.81-8.92,4.49-12.75,8.05c-6.95,6.47-13.06,14.07-18.15,22.58
		c-2.36,3.95-3.97,8.14-4.87,12.4c-2.53,3.35-4.57,7.16-6,11.35c-2.41,7.09-4.38,14.77-5.85,22.83c-0.68,3.74-0.83,7.46-0.49,11.08
		c-1.2,3.36-1.98,6.94-2.25,10.67l-0.09,1.29c-0.44,6.23-0.7,12.55-0.78,18.8c-0.05,3.45,0.34,6.82,1.11,10.03
		c-0.66,3.23-0.93,6.61-0.77,10.05c0.32,6.63,0.84,13.36,1.55,19.99c0.37,3.43,1.16,6.71,2.31,9.8c-0.27,3.28-0.13,6.65,0.44,10.04
		c1.1,6.51,2.41,13.1,3.89,19.59c0.76,3.34,1.92,6.49,3.41,9.41c0.12,3.27,0.63,6.58,1.58,9.86c1.82,6.3,3.85,12.66,6.03,18.9
		c1.12,3.21,2.6,6.19,4.39,8.9c0.46,3.21,1.33,6.42,2.61,9.56c2.46,6.01,5.12,12.07,7.91,18.01c1.43,3.05,3.19,5.84,5.22,8.34
		c0.78,3.12,1.95,6.2,3.52,9.17c3.01,5.68,6.21,11.4,9.52,17.01c1.7,2.88,3.7,5.47,5.94,7.76c1.06,3.01,2.49,5.95,4.31,8.75
		c3.48,5.34,7.14,10.71,10.9,15.97c1.93,2.7,4.13,5.1,6.53,7.18c1.3,2.89,2.96,5.67,4.99,8.29c3.89,5,7.95,10.03,12.08,14.94
		c2.12,2.52,4.48,4.72,7.02,6.58c1.51,2.77,3.37,5.4,5.59,7.84c4.24,4.66,8.64,9.34,13.1,13.9c2.29,2.35,4.81,4.36,7.47,6.04
		c1.71,2.65,3.76,5.14,6.15,7.41c4.63,4.4,9.39,8.75,14.15,12.94c2.47,2.17,5.13,3.99,7.92,5.46c1.91,2.52,4.15,4.84,6.7,6.93
		c1.34,1.09,2.71,2.17,4.07,3.25l-13.03,9.94c-2.41,1.84-4.55,3.89-6.43,6.11c-2.64,1.22-5.18,2.74-7.59,4.58l-14.02,10.69
		c-2.41,1.84-4.55,3.89-6.43,6.11c-2.64,1.22-5.18,2.75-7.59,4.58l-14.01,10.69c-2.4,1.84-4.55,3.89-6.42,6.11
		c-2.64,1.22-5.19,2.75-7.59,4.58l-14.01,10.69c-2.41,1.84-4.55,3.89-6.42,6.11c-2.64,1.22-5.18,2.74-7.59,4.58l-14.02,10.69
		c-2.41,1.84-4.55,3.89-6.43,6.11c-2.64,1.22-5.18,2.75-7.59,4.58L33.1,639.24c-2.4,1.84-4.55,3.89-6.42,6.11
		c-2.64,1.22-5.19,2.75-7.59,4.58l-5.62,4.28c-17.8,13.58-21.23,39.02-7.65,56.83C13.8,721.51,25.87,727,38.09,727
		c8.57,0,17.22-2.71,24.56-8.31l5.62-4.28c2.41-1.84,4.55-3.89,6.43-6.11c2.64-1.22,5.19-2.75,7.59-4.58l14.01-10.69
		c2.41-1.84,4.55-3.89,6.42-6.11c2.64-1.22,5.18-2.74,7.59-4.58l14.02-10.69c2.41-1.84,4.55-3.89,6.43-6.11
		c2.64-1.22,5.18-2.75,7.59-4.58l14.01-10.69c2.4-1.84,4.55-3.89,6.42-6.11c2.64-1.22,5.19-2.75,7.59-4.58l14.01-10.69
		c2.41-1.84,4.55-3.89,6.42-6.11c2.64-1.22,5.18-2.74,7.59-4.58l14.02-10.69c2.41-1.84,4.55-3.89,6.43-6.11
		c2.64-1.22,5.18-2.74,7.59-4.58l14.02-10.69c2.41-1.84,4.55-3.89,6.43-6.11c2.64-1.22,5.18-2.75,7.59-4.58l7.54-5.75
		c1.7,1.3,3.49,2.52,5.44,3.56c5.61,3,11.35,5.93,17.07,8.71c2.96,1.44,6.01,2.49,9.09,3.17c2.51,1.92,5.28,3.57,8.3,4.9
		c5.83,2.57,11.78,5.06,17.69,7.4c3.06,1.21,6.19,2.03,9.31,2.47c2.65,1.72,5.53,3.15,8.64,4.25c6.01,2.12,12.15,4.15,18.22,6.03
		c3.15,0.97,6.32,1.55,9.47,1.75c2.77,1.51,5.77,2.72,8.95,3.58c6.15,1.65,12.42,3.2,18.64,4.61c3.22,0.73,6.41,1.03,9.59,1.01
		c2.89,1.29,5.97,2.27,9.21,2.88c6.28,1.17,12.66,2.23,18.96,3.15c3.27,0.48,6.49,0.55,9.64,0.26c2.98,1.07,6.13,1.8,9.42,2.15
		c6.35,0.67,12.8,1.23,19.18,1.65c3.29,0.22,6.53,0.03,9.65-0.51c3.06,0.83,6.27,1.31,9.58,1.39c4.14,0.11,8.29,0.16,12.44,0.16
		c2.27,0,4.54-0.02,6.81-0.05c1.66-0.02,3.28-0.17,4.88-0.39V552.5C448.08,552.48,386.09,540.25,330.59,515.79z M326.25,412.57
		l-14.04,10.65c-0.29,0.22-0.54,0.47-0.83,0.7c-0.29,0.21-0.6,0.38-0.89,0.6l-12.31,9.34c0,0-0.01,0.01-0.01,0.01l-14.04,10.65
		c-0.29,0.22-0.55,0.48-0.84,0.71c-0.29,0.21-0.6,0.38-0.88,0.6l-14.05,10.65c-0.01,0.01-0.02,0.01-0.02,0.02l-12.29,9.33
		c-0.28,0.22-0.53,0.46-0.81,0.68c-0.3,0.22-0.62,0.39-0.92,0.62l-3.81,2.89c-1.35-1.36-2.81-2.63-4.38-3.82
		c-4.24-3.19-8.5-6.53-12.66-9.93c-2.14-1.74-4.4-3.23-6.75-4.47c-1.61-2.12-3.46-4.11-5.53-5.94c-3.99-3.51-7.98-7.16-11.87-10.85
		c-2-1.9-4.14-3.56-6.39-4.97c-1.45-2.24-3.14-4.37-5.07-6.35c-3.77-3.86-7.5-7.82-11.08-11.76c-1.86-2.05-3.88-3.86-6.02-5.43
		c-1.28-2.33-2.8-4.57-4.58-6.69c-3.45-4.1-6.85-8.3-10.09-12.47c-1.68-2.17-3.54-4.12-5.54-5.84c-1.08-2.4-2.41-4.73-4-6.96
		c-3.09-4.34-6.11-8.76-8.97-13.15c-1.48-2.28-3.16-4.36-4.99-6.23c-0.86-2.47-1.98-4.88-3.36-7.22c-2.68-4.54-5.27-9.17-7.7-13.75
		c-1.26-2.38-2.72-4.58-4.35-6.59c-0.63-2.51-1.51-4.99-2.65-7.42c-2.21-4.72-4.32-9.51-6.26-14.26c-1.01-2.46-2.23-4.77-3.64-6.92
		c-0.37-2.53-0.98-5.07-1.86-7.58c-1.69-4.85-3.27-9.79-4.68-14.68c-0.73-2.53-1.69-4.93-2.84-7.2c-0.09-2.53-0.42-5.09-1-7.65
		c-1.14-4.97-2.14-10.01-2.97-14.98c-0.43-2.58-1.1-5.06-1.98-7.42c0.2-2.5,0.17-5.06-0.11-7.66c-0.54-5.03-0.94-10.12-1.18-15.14
		c-0.12-2.6-0.49-5.13-1.07-7.57c0.5-2.45,0.78-4.99,0.81-7.59c0.06-4.71,0.26-9.49,0.59-14.22l0.07-0.91
		c0.17-2.31,0.15-4.58-0.06-6.81c0.73-2.05,1.31-4.19,1.71-6.4c0.76-4.15,1.72-7.95,2.85-11.28c0.52-1.54,0.95-3.1,1.28-4.65
		c0.86-1.14,1.67-2.34,2.42-3.6c1.16-1.95,2.44-3.57,3.78-4.82c0.62-0.57,1.21-1.16,1.79-1.76c0.8-0.32,1.59-0.66,2.38-1.03
		c1.86-0.87,4.09-1.54,6.63-2c1.58-0.28,3.13-0.65,4.63-1.11c1.71,0.24,3.45,0.38,5.22,0.41c3.72,0.05,7.81,0.41,12.17,1.06
		c2.3,0.34,4.59,0.49,6.82,0.44c2.11,0.93,4.33,1.7,6.65,2.27c4.5,1.12,9.27,2.49,14.18,4.08c2.5,0.81,5.02,1.37,7.53,1.68
		c2.17,1.36,4.51,2.54,6.99,3.5c4.73,1.82,9.67,3.86,14.68,6.05c2.55,1.11,5.14,1.94,7.76,2.5c2.14,1.62,4.47,3.05,6.99,4.26
		c4.76,2.28,9.71,4.75,14.72,7.34c2.53,1.31,5.14,2.32,7.78,3.06c2.09,1.79,4.4,3.4,6.92,4.77c4.86,2.66,9.73,5.41,14.62,8.22
		c2.51,1.45,5.11,2.6,7.76,3.46c2.04,1.9,4.31,3.62,6.8,5.12c4.83,2.9,9.66,5.87,14.49,8.88c2.48,1.55,5.07,2.8,7.72,3.75
		c2,1.99,4.23,3.79,6.7,5.38c4.81,3.09,9.6,6.22,14.37,9.38c2.46,1.63,5.03,2.95,7.67,3.98c1.96,2.05,4.17,3.93,6.61,5.58
		c4.77,3.23,9.51,6.48,14.22,9.74c2.44,1.69,5,3.08,7.64,4.17c1.93,2.1,4.11,4.04,6.54,5.75c4.76,3.36,9.46,6.71,14.11,10.04
		c2.42,1.74,4.97,3.17,7.6,4.31c1.91,2.14,4.07,4.12,6.48,5.88c4.76,3.46,9.44,6.9,14.04,10.29c2.41,1.78,4.95,3.25,7.58,4.42
		c1.89,2.18,4.04,4.19,6.45,5.98c4.78,3.56,9.46,7.06,14.01,10.48c2.41,1.81,4.96,3.31,7.6,4.51c1.88,2.2,4.03,4.23,6.44,6.05
		l2.5,1.89l-9.28,7.04c0,0,0,0-0.01,0.01l-12.31,9.34c-0.29,0.22-0.54,0.47-0.82,0.7c-0.3,0.21-0.61,0.39-0.9,0.61l-14.05,10.65
		c0,0,0,0,0,0l-12.32,9.34c-0.29,0.22-0.54,0.47-0.83,0.7c-0.29,0.21-0.6,0.38-0.89,0.6l-14.05,10.65c0,0-0.01,0-0.01,0.01
		l-12.31,9.34c-0.29,0.22-0.54,0.47-0.83,0.7c-0.29,0.21-0.6,0.38-0.89,0.6l-12.3,9.33c-0.01,0.01-0.02,0.01-0.03,0.02l-14.04,10.65
		c-0.29,0.22-0.54,0.47-0.83,0.7c-0.29,0.21-0.6,0.38-0.89,0.6l-12.31,9.34C326.26,412.57,326.25,412.57,326.25,412.57z"/>
	<path class="st0" d="M1003.53,654.21l-5.62-4.28c-2.41-1.83-4.95-3.36-7.58-4.58c-1.88-2.22-4.02-4.28-6.43-6.11l-14.02-10.69
		c-2.41-1.83-4.95-3.36-7.59-4.58c-1.87-2.22-4.01-4.27-6.42-6.11l-14.01-10.69c-2.41-1.84-4.95-3.36-7.6-4.59
		c-1.87-2.22-4.02-4.27-6.42-6.11l-14.02-10.69c-2.4-1.83-4.95-3.36-7.58-4.58c-1.88-2.22-4.02-4.28-6.43-6.11l-14.02-10.69
		c-2.41-1.83-4.95-3.36-7.59-4.58c-1.87-2.22-4.01-4.27-6.42-6.11l-14.01-10.69c-2.41-1.84-4.95-3.36-7.6-4.59
		c-1.87-2.22-4.02-4.27-6.42-6.11l-13.03-9.94c1.36-1.08,2.72-2.16,4.07-3.25c2.55-2.08,4.79-4.41,6.69-6.92
		c2.79-1.47,5.45-3.29,7.92-5.46c4.79-4.21,9.55-8.57,14.15-12.94c2.39-2.27,4.44-4.76,6.15-7.41c2.66-1.67,5.17-3.68,7.47-6.03
		c4.45-4.56,8.86-9.24,13.1-13.9c2.21-2.44,4.07-5.07,5.58-7.83c2.54-1.87,4.91-4.07,7.03-6.59c4.13-4.91,8.2-9.94,12.08-14.94
		c2.03-2.62,3.69-5.4,4.99-8.29c2.4-2.07,4.6-4.47,6.52-7.16c3.77-5.28,7.44-10.66,10.91-15.99c1.82-2.79,3.25-5.73,4.31-8.74
		c2.23-2.29,4.23-4.88,5.93-7.75c3.3-5.59,6.5-11.31,9.52-17.01c1.58-2.98,2.75-6.06,3.53-9.19c2.03-2.51,3.8-5.3,5.23-8.36
		c2.8-5.96,5.45-12.01,7.89-17.98c1.29-3.14,2.15-6.36,2.62-9.58c1.78-2.71,3.26-5.69,4.38-8.89c2.18-6.23,4.21-12.59,6.03-18.91
		c0.95-3.29,1.47-6.59,1.58-9.86c1.48-2.91,2.64-6.05,3.41-9.39c1.49-6.48,2.8-13.08,3.9-19.62c0.57-3.39,0.71-6.76,0.44-10.03
		c1.15-3.09,1.93-6.37,2.31-9.79c0.72-6.64,1.24-13.38,1.56-20.02c0.16-3.45-0.11-6.81-0.77-10.04c0.77-3.21,1.16-6.57,1.11-10.02
		c-0.08-6.23-0.34-12.55-0.77-18.6l-0.11-1.5c-0.28-3.73-1.05-7.3-2.26-10.66c0.34-3.6,0.19-7.31-0.49-11.05
		c-1.47-8.07-3.44-15.76-5.86-22.86c-1.43-4.19-3.47-7.99-5.99-11.34c-0.9-4.25-2.51-8.43-4.86-12.37
		c-5.09-8.52-11.2-16.13-18.16-22.61c-3.83-3.56-8.16-6.24-12.74-8.05c-3.38-3.56-7.46-6.57-12.18-8.78
		c-8.3-3.9-17.35-6.74-26.9-8.44c-4.39-0.78-8.73-0.82-12.91-0.22c-3.89-1.18-8-1.76-12.33-1.72c-7.3,0.11-15.01,0.75-22.91,1.93
		c-3.69,0.55-7.2,1.58-10.46,3.02c-3.52-0.06-7.06,0.31-10.62,1.19c-6.36,1.58-12.99,3.48-19.71,5.66
		c-3.26,1.06-6.29,2.49-9.07,4.23c-3.23,0.4-6.46,1.2-9.64,2.43c-5.83,2.25-11.86,4.74-17.93,7.39c-3.01,1.32-5.78,2.95-8.29,4.85
		c-3.06,0.66-6.09,1.68-9.03,3.09c-5.47,2.62-11.16,5.45-16.88,8.41c-2.85,1.47-5.45,3.23-7.78,5.23c-2.96,0.82-5.87,1.99-8.68,3.53
		c-5.36,2.94-10.74,5.97-16.13,9.08c-2.74,1.58-5.23,3.43-7.44,5.5c-2.88,0.93-5.71,2.21-8.41,3.84c-5.2,3.13-10.41,6.32-15.61,9.56
		c-2.65,1.65-5.05,3.57-7.18,5.68c-2.82,1.02-5.57,2.37-8.2,4.05c-5.1,3.28-10.18,6.6-15.25,9.95c-2.6,1.72-4.93,3.68-6.99,5.84
		c-2.76,1.08-5.45,2.48-8.01,4.21c-5.02,3.39-9.99,6.81-14.93,10.23c-2.54,1.76-4.82,3.76-6.83,5.95c-2.74,1.13-5.41,2.59-7.93,4.37
		c-4.93,3.48-9.82,6.96-14.64,10.42c-2.5,1.8-4.74,3.83-6.71,6.04c-2.71,1.17-5.33,2.66-7.82,4.47c-4.89,3.56-9.71,7.09-14.43,10.58
		c-2.47,1.82-4.68,3.87-6.61,6.1c-2.68,1.2-5.28,2.7-7.73,4.53c-4.87,3.63-9.63,7.19-14.26,10.67c-2.44,1.83-4.61,3.88-6.51,6.11
		c-2.66,1.21-5.23,2.73-7.67,4.57l-14.1,10.64c-0.67,0.51-1.28,1.07-1.91,1.61c-0.11-0.09-0.22-0.18-0.32-0.27v128.36
		c48.22,4.06,82.19,45.71,118.21,73.17c2.4,1.83,4.95,3.36,7.59,4.58c1.88,2.22,4.02,4.28,6.43,6.11l14.02,10.69
		c2.41,1.84,4.95,3.36,7.59,4.58c1.88,2.22,4.02,4.27,6.42,6.11l14.01,10.69c1.93,1.48,3.98,2.7,6.07,3.78
		c-0.7,0.26-1.41,0.45-2.1,0.76c-4.9,2.16-9.89,4.24-14.85,6.21c-49.96,19.79-103.72,29.79-157.39,30.5c-1.99,0.03-4,0-6,0v79.28
		c0.11-0.01,0.21-0.02,0.32-0.04c1.7,0.24,3.43,0.4,5.2,0.43c2.27,0.03,4.54,0.05,6.83,0.05c4.14,0,8.28-0.06,12.41-0.16
		c3.31-0.09,6.52-0.57,9.58-1.39c3.12,0.54,6.36,0.73,9.65,0.51c6.36-0.42,12.8-0.97,19.17-1.65c3.29-0.35,6.45-1.08,9.43-2.15
		c3.15,0.29,6.38,0.22,9.64-0.26c6.3-0.92,12.68-1.98,18.96-3.15c3.25-0.61,6.33-1.58,9.21-2.88c3.14,0.04,6.38-0.28,9.59-1.01
		c6.21-1.41,12.48-2.96,18.64-4.61c3.19-0.85,6.18-2.07,8.96-3.58c3.15-0.2,6.33-0.77,9.48-1.75c6.09-1.89,12.22-3.92,18.21-6.03
		c3.11-1.09,5.99-2.53,8.64-4.25c3.13-0.44,6.25-1.25,9.31-2.47c5.9-2.34,11.85-4.83,17.69-7.39c3.02-1.33,5.79-2.99,8.3-4.9
		c3.08-0.67,6.13-1.72,9.08-3.16c5.7-2.78,11.44-5.71,17.07-8.71c1.95-1.04,3.73-2.27,5.44-3.56l7.54,5.75
		c2.4,1.83,4.95,3.36,7.58,4.58c1.88,2.22,4.02,4.28,6.43,6.11l14.02,10.69c2.41,1.84,4.95,3.36,7.59,4.58
		c1.87,2.22,4.01,4.27,6.42,6.11l14.01,10.69c2.41,1.84,4.95,3.36,7.6,4.59c1.87,2.22,4.02,4.27,6.42,6.11l14.02,10.69
		c2.4,1.83,4.95,3.36,7.58,4.58c1.88,2.22,4.02,4.28,6.43,6.11l14.02,10.69c2.41,1.84,4.95,3.36,7.59,4.58
		c1.87,2.22,4.01,4.27,6.42,6.11l14.01,10.69c2.41,1.84,4.95,3.36,7.6,4.59c1.87,2.22,4.02,4.27,6.42,6.11l14.02,10.69
		c2.4,1.83,4.95,3.36,7.58,4.58c1.88,2.22,4.02,4.28,6.43,6.12l5.62,4.28c7.34,5.6,15.98,8.31,24.55,8.31
		c12.22,0,24.29-5.5,32.27-15.96C1024.76,693.23,1021.33,667.79,1003.53,654.21z M819.16,423.7c-1.93,1.98-3.63,4.11-5.07,6.35
		c-2.25,1.42-4.39,3.07-6.39,4.97c-3.86,3.66-7.85,7.32-11.86,10.85c-2.07,1.82-3.91,3.81-5.53,5.93c-2.35,1.24-4.62,2.73-6.75,4.48
		c-4.16,3.39-8.41,6.73-12.65,9.92c-1.57,1.18-3.03,2.46-4.38,3.82l-3.81-2.89c-0.29-0.22-0.61-0.4-0.91-0.62
		c-0.28-0.22-0.53-0.47-0.82-0.69l-12.3-9.33c-0.01-0.01-0.01-0.01-0.02-0.02l-14.04-10.65c-0.29-0.22-0.59-0.39-0.88-0.6
		c-0.29-0.23-0.54-0.49-0.84-0.71l-14.04-10.65c-0.01-0.01-0.02-0.01-0.02-0.02l-12.31-9.33c-0.29-0.22-0.6-0.4-0.9-0.61
		c-0.28-0.23-0.53-0.48-0.82-0.7l-14.04-10.65l0,0l-12.33-9.35c-0.29-0.22-0.61-0.4-0.91-0.61c-0.28-0.22-0.53-0.47-0.82-0.69
		l-12.32-9.34c0,0,0,0-0.01-0.01l-14.05-10.65c-0.29-0.22-0.6-0.39-0.89-0.6c-0.28-0.22-0.53-0.47-0.82-0.69l-14.04-10.65
		c-0.01-0.01-0.01-0.01-0.02-0.01l-12.31-9.34c-0.29-0.22-0.6-0.39-0.89-0.6c-0.28-0.23-0.53-0.48-0.82-0.69l-12.32-9.34
		c0,0-0.01-0.01-0.01-0.01l-14.05-10.65c-0.29-0.22-0.61-0.4-0.91-0.61c-0.28-0.22-0.52-0.47-0.81-0.69l-12.3-9.33
		c-0.01-0.01-0.02-0.02-0.03-0.02l-9.28-7.04l2.5-1.89c2.41-1.82,4.56-3.85,6.44-6.05c2.64-1.2,5.18-2.7,7.6-4.51
		c4.55-3.42,9.23-6.92,14.01-10.48c2.41-1.79,4.56-3.8,6.45-5.98c2.63-1.17,5.17-2.64,7.58-4.42c4.6-3.39,9.29-6.83,14.04-10.29
		c2.41-1.76,4.58-3.73,6.48-5.88c2.63-1.13,5.17-2.57,7.6-4.31c4.65-3.34,9.36-6.69,14.12-10.05c2.43-1.71,4.61-3.64,6.53-5.74
		c2.64-1.09,5.2-2.48,7.64-4.17c4.7-3.25,9.43-6.5,14.2-9.73c2.46-1.66,4.67-3.55,6.64-5.61c2.63-1.03,5.2-2.35,7.66-3.97
		c4.76-3.15,9.55-6.28,14.36-9.37c2.47-1.59,4.71-3.4,6.71-5.39c2.65-0.96,5.24-2.21,7.73-3.76c4.83-3.01,9.66-5.97,14.49-8.87
		c2.49-1.5,4.75-3.22,6.8-5.12c2.65-0.86,5.25-2.01,7.76-3.45c4.89-2.82,9.77-5.57,14.63-8.23c2.51-1.38,4.81-2.97,6.9-4.76
		c2.64-0.74,5.26-1.75,7.79-3.06c5.01-2.59,9.96-5.06,14.71-7.33c2.52-1.21,4.86-2.64,7-4.27c2.61-0.56,5.2-1.39,7.74-2.5
		c5.01-2.19,9.95-4.22,14.69-6.06c2.48-0.96,4.81-2.13,6.98-3.49c2.52-0.31,5.04-0.87,7.54-1.68c4.91-1.59,9.68-2.97,14.18-4.08
		c2.32-0.57,4.54-1.34,6.66-2.27c2.26,0.07,4.52-0.09,6.82-0.44c4.36-0.65,8.45-1,12.17-1.06c1.77-0.03,3.51-0.17,5.22-0.41
		c1.5,0.45,3.05,0.82,4.63,1.11c2.55,0.45,4.78,1.13,6.64,2c0.78,0.37,1.57,0.71,2.37,1.02c0.58,0.61,1.17,1.2,1.79,1.77
		c1.35,1.25,2.61,2.87,3.77,4.8c0.75,1.26,1.57,2.47,2.43,3.62c0.33,1.56,0.76,3.11,1.28,4.66c1.13,3.33,2.09,7.11,2.84,11.24
		c0.41,2.22,0.98,4.37,1.72,6.43c-0.21,2.23-0.23,4.51-0.06,6.82l0.07,0.91c0.33,4.72,0.53,9.51,0.59,14.22
		c0.03,2.6,0.31,5.14,0.81,7.59c-0.59,2.44-0.95,4.97-1.07,7.57c-0.24,5.01-0.63,10.1-1.18,15.12c-0.28,2.59-0.31,5.16-0.11,7.67
		c-0.88,2.36-1.55,4.84-1.98,7.42c-0.84,4.98-1.84,10.01-2.97,14.95c-0.59,2.57-0.92,5.14-1.01,7.67c-1.15,2.26-2.11,4.67-2.84,7.2
		c-1.42,4.9-2.99,9.83-4.68,14.67c-0.88,2.51-1.49,5.05-1.86,7.59c-1.4,2.14-2.62,4.44-3.63,6.9c-1.94,4.73-4.05,9.54-6.28,14.3
		c-1.14,2.43-2.01,4.91-2.64,7.41c-1.63,2.01-3.08,4.21-4.34,6.58c-2.44,4.6-5.03,9.23-7.7,13.75c-1.38,2.34-2.5,4.76-3.36,7.22
		c-1.83,1.88-3.51,3.96-4.99,6.24c-2.84,4.37-5.86,8.78-8.97,13.14c-1.59,2.23-2.92,4.57-4,6.97c-2,1.73-3.86,3.67-5.54,5.84
		c-3.24,4.17-6.63,8.37-10.09,12.47c-1.78,2.11-3.3,4.35-4.58,6.68c-2.14,1.58-4.17,3.39-6.03,5.44
		C826.66,415.89,822.93,419.84,819.16,423.7z"/>
</g>
</svg>
